G04 (created by PCBnew (20090216-final)) date 8/4/2010 12:46:23*
G01*
G70*
G90*
%MOIN*%
G04 Gerber Fmt 3.4, Leading zero omitted, Abs format*
%FSLAX34Y34*%
G04 APERTURE LIST*
%ADD10C,0.015000*%
%ADD11C,0.055000*%
%ADD12R,0.055000X0.055000*%
%ADD13C,0.070000*%
%ADD14C,0.066000*%
%ADD15R,0.060000X0.060000*%
%ADD16C,0.060000*%
%ADD17C,0.045000*%
%ADD18C,0.017000*%
%ADD19C,0.010000*%
%ADD20C,0.012000*%
%ADD21C,0.008000*%
%ADD22C,0.003000*%
%ADD23C,0.006000*%
%ADD24C,0.001000*%
%ADD25C,0.003500*%
G04 APERTURE END LIST*
G54D10*
X88500Y-23000D02*
X88500Y-35000D01*
X41000Y-35000D02*
X41000Y-40500D01*
X41000Y-17500D02*
X41000Y-23000D01*
X41000Y-35000D02*
X41000Y-35500D01*
X88500Y-35000D02*
X41000Y-35000D01*
X41000Y-23000D02*
X88500Y-23000D01*
X28500Y-40500D02*
X41000Y-40500D01*
X31000Y-17500D02*
X41000Y-17500D01*
X08500Y-40500D02*
X14000Y-40500D01*
X08500Y-17500D02*
X08500Y-40500D01*
X13000Y-17500D02*
X08500Y-17500D01*
X31000Y-17500D02*
X13000Y-17500D01*
X28500Y-40500D02*
X14000Y-40500D01*
X41707Y-29000D02*
X41693Y-29137D01*
X41693Y-29137D02*
X41653Y-29269D01*
X41653Y-29269D02*
X41588Y-29391D01*
X41588Y-29391D02*
X41501Y-29498D01*
X41501Y-29498D02*
X41395Y-29586D01*
X41395Y-29586D02*
X41273Y-29651D01*
X41273Y-29651D02*
X41142Y-29692D01*
X41142Y-29692D02*
X41004Y-29706D01*
X41004Y-29706D02*
X40868Y-29694D01*
X40868Y-29694D02*
X40736Y-29655D01*
X40736Y-29655D02*
X40613Y-29591D01*
X40613Y-29591D02*
X40506Y-29505D01*
X40506Y-29505D02*
X40417Y-29399D01*
X40417Y-29399D02*
X40351Y-29278D01*
X40351Y-29278D02*
X40309Y-29146D01*
X40309Y-29146D02*
X40294Y-29009D01*
X40294Y-29009D02*
X40305Y-28873D01*
X40305Y-28873D02*
X40343Y-28740D01*
X40343Y-28740D02*
X40406Y-28618D01*
X40406Y-28618D02*
X40492Y-28509D01*
X40492Y-28509D02*
X40597Y-28420D01*
X40597Y-28420D02*
X40717Y-28353D01*
X40717Y-28353D02*
X40849Y-28310D01*
X40849Y-28310D02*
X40986Y-28294D01*
X40986Y-28294D02*
X41122Y-28304D01*
X41122Y-28304D02*
X41255Y-28341D01*
X41255Y-28341D02*
X41378Y-28404D01*
X41378Y-28404D02*
X41487Y-28489D01*
X41487Y-28489D02*
X41577Y-28593D01*
X41577Y-28593D02*
X41645Y-28713D01*
X41645Y-28713D02*
X41689Y-28844D01*
X41689Y-28844D02*
X41706Y-28981D01*
X41706Y-28981D02*
X41707Y-29000D01*
X41500Y-29000D02*
X41490Y-29097D01*
X41490Y-29097D02*
X41462Y-29190D01*
X41462Y-29190D02*
X41416Y-29276D01*
X41416Y-29276D02*
X41354Y-29352D01*
X41354Y-29352D02*
X41279Y-29414D01*
X41279Y-29414D02*
X41193Y-29460D01*
X41193Y-29460D02*
X41100Y-29489D01*
X41100Y-29489D02*
X41003Y-29499D01*
X41003Y-29499D02*
X40907Y-29491D01*
X40907Y-29491D02*
X40813Y-29463D01*
X40813Y-29463D02*
X40727Y-29418D01*
X40727Y-29418D02*
X40651Y-29357D01*
X40651Y-29357D02*
X40588Y-29282D01*
X40588Y-29282D02*
X40541Y-29196D01*
X40541Y-29196D02*
X40511Y-29103D01*
X40511Y-29103D02*
X40501Y-29006D01*
X40501Y-29006D02*
X40509Y-28910D01*
X40509Y-28910D02*
X40536Y-28816D01*
X40536Y-28816D02*
X40580Y-28730D01*
X40580Y-28730D02*
X40641Y-28653D01*
X40641Y-28653D02*
X40715Y-28590D01*
X40715Y-28590D02*
X40800Y-28542D01*
X40800Y-28542D02*
X40893Y-28512D01*
X40893Y-28512D02*
X40990Y-28501D01*
X40990Y-28501D02*
X41086Y-28508D01*
X41086Y-28508D02*
X41180Y-28534D01*
X41180Y-28534D02*
X41267Y-28578D01*
X41267Y-28578D02*
X41344Y-28638D01*
X41344Y-28638D02*
X41408Y-28712D01*
X41408Y-28712D02*
X41456Y-28797D01*
X41456Y-28797D02*
X41487Y-28890D01*
X41487Y-28890D02*
X41499Y-28987D01*
X41499Y-28987D02*
X41500Y-29000D01*
G54D14*
X14000Y-28500D03*
X14000Y-29500D03*
X10500Y-29500D03*
X10500Y-28500D03*
M02*
