G04 (created by PCBnew (20090216-final)) date 8/4/2010 12:46:23*
G01*
G70*
G90*
%MOIN*%
G04 Gerber Fmt 3.4, Leading zero omitted, Abs format*
%FSLAX34Y34*%
G04 APERTURE LIST*
%ADD10C,0.015000*%
%ADD11C,0.055000*%
%ADD12R,0.055000X0.055000*%
%ADD13C,0.070000*%
%ADD14C,0.066000*%
%ADD15R,0.060000X0.060000*%
%ADD16C,0.060000*%
%ADD17C,0.045000*%
%ADD18C,0.017000*%
%ADD19C,0.010000*%
%ADD20C,0.012000*%
%ADD21C,0.008000*%
%ADD22C,0.003000*%
%ADD23C,0.006000*%
%ADD24C,0.001000*%
%ADD25C,0.003500*%
G04 APERTURE END LIST*
G54D10*
X88500Y-23000D02*
X88500Y-35000D01*
X41000Y-35000D02*
X41000Y-40500D01*
X41000Y-17500D02*
X41000Y-23000D01*
X41000Y-35000D02*
X41000Y-35500D01*
X88500Y-35000D02*
X41000Y-35000D01*
X41000Y-23000D02*
X88500Y-23000D01*
X28500Y-40500D02*
X41000Y-40500D01*
X31000Y-17500D02*
X41000Y-17500D01*
X08500Y-40500D02*
X14000Y-40500D01*
X08500Y-17500D02*
X08500Y-40500D01*
X13000Y-17500D02*
X08500Y-17500D01*
X31000Y-17500D02*
X13000Y-17500D01*
X28500Y-40500D02*
X14000Y-40500D01*
X41707Y-29000D02*
X41693Y-29137D01*
X41693Y-29137D02*
X41653Y-29269D01*
X41653Y-29269D02*
X41588Y-29391D01*
X41588Y-29391D02*
X41501Y-29498D01*
X41501Y-29498D02*
X41395Y-29586D01*
X41395Y-29586D02*
X41273Y-29651D01*
X41273Y-29651D02*
X41142Y-29692D01*
X41142Y-29692D02*
X41004Y-29706D01*
X41004Y-29706D02*
X40868Y-29694D01*
X40868Y-29694D02*
X40736Y-29655D01*
X40736Y-29655D02*
X40613Y-29591D01*
X40613Y-29591D02*
X40506Y-29505D01*
X40506Y-29505D02*
X40417Y-29399D01*
X40417Y-29399D02*
X40351Y-29278D01*
X40351Y-29278D02*
X40309Y-29146D01*
X40309Y-29146D02*
X40294Y-29009D01*
X40294Y-29009D02*
X40305Y-28873D01*
X40305Y-28873D02*
X40343Y-28740D01*
X40343Y-28740D02*
X40406Y-28618D01*
X40406Y-28618D02*
X40492Y-28509D01*
X40492Y-28509D02*
X40597Y-28420D01*
X40597Y-28420D02*
X40717Y-28353D01*
X40717Y-28353D02*
X40849Y-28310D01*
X40849Y-28310D02*
X40986Y-28294D01*
X40986Y-28294D02*
X41122Y-28304D01*
X41122Y-28304D02*
X41255Y-28341D01*
X41255Y-28341D02*
X41378Y-28404D01*
X41378Y-28404D02*
X41487Y-28489D01*
X41487Y-28489D02*
X41577Y-28593D01*
X41577Y-28593D02*
X41645Y-28713D01*
X41645Y-28713D02*
X41689Y-28844D01*
X41689Y-28844D02*
X41706Y-28981D01*
X41706Y-28981D02*
X41707Y-29000D01*
X41500Y-29000D02*
X41490Y-29097D01*
X41490Y-29097D02*
X41462Y-29190D01*
X41462Y-29190D02*
X41416Y-29276D01*
X41416Y-29276D02*
X41354Y-29352D01*
X41354Y-29352D02*
X41279Y-29414D01*
X41279Y-29414D02*
X41193Y-29460D01*
X41193Y-29460D02*
X41100Y-29489D01*
X41100Y-29489D02*
X41003Y-29499D01*
X41003Y-29499D02*
X40907Y-29491D01*
X40907Y-29491D02*
X40813Y-29463D01*
X40813Y-29463D02*
X40727Y-29418D01*
X40727Y-29418D02*
X40651Y-29357D01*
X40651Y-29357D02*
X40588Y-29282D01*
X40588Y-29282D02*
X40541Y-29196D01*
X40541Y-29196D02*
X40511Y-29103D01*
X40511Y-29103D02*
X40501Y-29006D01*
X40501Y-29006D02*
X40509Y-28910D01*
X40509Y-28910D02*
X40536Y-28816D01*
X40536Y-28816D02*
X40580Y-28730D01*
X40580Y-28730D02*
X40641Y-28653D01*
X40641Y-28653D02*
X40715Y-28590D01*
X40715Y-28590D02*
X40800Y-28542D01*
X40800Y-28542D02*
X40893Y-28512D01*
X40893Y-28512D02*
X40990Y-28501D01*
X40990Y-28501D02*
X41086Y-28508D01*
X41086Y-28508D02*
X41180Y-28534D01*
X41180Y-28534D02*
X41267Y-28578D01*
X41267Y-28578D02*
X41344Y-28638D01*
X41344Y-28638D02*
X41408Y-28712D01*
X41408Y-28712D02*
X41456Y-28797D01*
X41456Y-28797D02*
X41487Y-28890D01*
X41487Y-28890D02*
X41499Y-28987D01*
X41499Y-28987D02*
X41500Y-29000D01*
G54D21*
X14750Y-30120D02*
X13250Y-30120D01*
G54D22*
X14707Y-29100D02*
X14693Y-29237D01*
X14693Y-29237D02*
X14653Y-29369D01*
X14653Y-29369D02*
X14588Y-29491D01*
X14588Y-29491D02*
X14501Y-29598D01*
X14501Y-29598D02*
X14395Y-29686D01*
X14395Y-29686D02*
X14273Y-29751D01*
X14273Y-29751D02*
X14142Y-29792D01*
X14142Y-29792D02*
X14004Y-29806D01*
X14004Y-29806D02*
X13868Y-29794D01*
X13868Y-29794D02*
X13736Y-29755D01*
X13736Y-29755D02*
X13613Y-29691D01*
X13613Y-29691D02*
X13506Y-29605D01*
X13506Y-29605D02*
X13417Y-29499D01*
X13417Y-29499D02*
X13351Y-29378D01*
X13351Y-29378D02*
X13309Y-29246D01*
X13309Y-29246D02*
X13294Y-29109D01*
X13294Y-29109D02*
X13305Y-28973D01*
X13305Y-28973D02*
X13343Y-28840D01*
X13343Y-28840D02*
X13406Y-28718D01*
X13406Y-28718D02*
X13492Y-28609D01*
X13492Y-28609D02*
X13597Y-28520D01*
X13597Y-28520D02*
X13717Y-28453D01*
X13717Y-28453D02*
X13849Y-28410D01*
X13849Y-28410D02*
X13986Y-28394D01*
X13986Y-28394D02*
X14122Y-28404D01*
X14122Y-28404D02*
X14255Y-28441D01*
X14255Y-28441D02*
X14378Y-28504D01*
X14378Y-28504D02*
X14487Y-28589D01*
X14487Y-28589D02*
X14577Y-28693D01*
X14577Y-28693D02*
X14645Y-28813D01*
X14645Y-28813D02*
X14689Y-28944D01*
X14689Y-28944D02*
X14706Y-29081D01*
X14706Y-29081D02*
X14707Y-29100D01*
G54D19*
X14751Y-30100D02*
X14942Y-29922D01*
X14942Y-29922D02*
X15092Y-29708D01*
X15092Y-29708D02*
X15195Y-29468D01*
X15195Y-29468D02*
X15245Y-29211D01*
X15245Y-29211D02*
X15241Y-28950D01*
X15241Y-28950D02*
X15183Y-28695D01*
X15183Y-28695D02*
X15073Y-28458D01*
X15073Y-28458D02*
X14916Y-28249D01*
X14916Y-28249D02*
X14719Y-28077D01*
X14719Y-28077D02*
X14490Y-27950D01*
X14490Y-27950D02*
X14241Y-27873D01*
X14241Y-27873D02*
X13980Y-27850D01*
X13980Y-27850D02*
X13721Y-27882D01*
X13721Y-27882D02*
X13474Y-27966D01*
X13474Y-27966D02*
X13249Y-28100D01*
X13249Y-28100D02*
X13058Y-28278D01*
X13058Y-28278D02*
X12908Y-28492D01*
X12908Y-28492D02*
X12805Y-28732D01*
X12805Y-28732D02*
X12755Y-28989D01*
X12755Y-28989D02*
X12759Y-29250D01*
X12759Y-29250D02*
X12817Y-29505D01*
X12817Y-29505D02*
X12927Y-29742D01*
X12927Y-29742D02*
X13084Y-29951D01*
X13084Y-29951D02*
X13281Y-30123D01*
X13281Y-30123D02*
X13510Y-30250D01*
X13510Y-30250D02*
X13759Y-30327D01*
X13759Y-30327D02*
X14020Y-30350D01*
X14020Y-30350D02*
X14279Y-30318D01*
X14279Y-30318D02*
X14526Y-30234D01*
X14526Y-30234D02*
X14751Y-30100D01*
X14751Y-30100D02*
X14942Y-29922D01*
X14942Y-29922D02*
X15092Y-29708D01*
X15092Y-29708D02*
X15195Y-29468D01*
X15195Y-29468D02*
X15245Y-29211D01*
X15245Y-29211D02*
X15241Y-28950D01*
X15241Y-28950D02*
X15183Y-28695D01*
X15183Y-28695D02*
X15073Y-28458D01*
X15073Y-28458D02*
X14916Y-28249D01*
X14916Y-28249D02*
X14719Y-28077D01*
X14719Y-28077D02*
X14490Y-27950D01*
X14490Y-27950D02*
X14241Y-27873D01*
X14241Y-27873D02*
X13980Y-27850D01*
X13980Y-27850D02*
X13721Y-27882D01*
X13721Y-27882D02*
X13474Y-27966D01*
X13474Y-27966D02*
X13249Y-28100D01*
X13249Y-28100D02*
X13058Y-28278D01*
X13058Y-28278D02*
X12908Y-28492D01*
X12908Y-28492D02*
X12805Y-28732D01*
X12805Y-28732D02*
X12755Y-28989D01*
X12755Y-28989D02*
X12759Y-29250D01*
X12759Y-29250D02*
X12817Y-29505D01*
X12817Y-29505D02*
X12927Y-29742D01*
X12927Y-29742D02*
X13084Y-29951D01*
X13084Y-29951D02*
X13249Y-30100D01*
G54D23*
X14000Y-28650D02*
X13906Y-28660D01*
X13906Y-28660D02*
X13817Y-28689D01*
X13817Y-28689D02*
X13735Y-28736D01*
X13735Y-28736D02*
X13666Y-28799D01*
X13666Y-28799D02*
X13610Y-28875D01*
X13610Y-28875D02*
X13572Y-28961D01*
X13572Y-28961D02*
X13552Y-29053D01*
X13552Y-29053D02*
X13552Y-29147D01*
X13552Y-29147D02*
X13572Y-29239D01*
X13572Y-29239D02*
X13610Y-29325D01*
X13610Y-29325D02*
X13666Y-29401D01*
X13666Y-29401D02*
X13735Y-29464D01*
X13735Y-29464D02*
X13817Y-29511D01*
X13817Y-29511D02*
X13906Y-29540D01*
X13906Y-29540D02*
X14000Y-29550D01*
X14000Y-29550D02*
X14094Y-29540D01*
X14094Y-29540D02*
X14183Y-29511D01*
X14183Y-29511D02*
X14265Y-29464D01*
X14265Y-29464D02*
X14334Y-29401D01*
X14334Y-29401D02*
X14390Y-29325D01*
X14390Y-29325D02*
X14428Y-29239D01*
X14428Y-29239D02*
X14448Y-29147D01*
X14448Y-29147D02*
X14448Y-29053D01*
X14448Y-29053D02*
X14428Y-28961D01*
X14428Y-28961D02*
X14390Y-28875D01*
X14390Y-28875D02*
X14334Y-28799D01*
X14334Y-28799D02*
X14265Y-28736D01*
X14265Y-28736D02*
X14183Y-28689D01*
X14183Y-28689D02*
X14094Y-28660D01*
X14094Y-28660D02*
X14000Y-28650D01*
X14000Y-28650D02*
X13906Y-28660D01*
X13906Y-28660D02*
X13817Y-28689D01*
X13817Y-28689D02*
X13735Y-28736D01*
X13735Y-28736D02*
X13666Y-28799D01*
X13666Y-28799D02*
X13610Y-28875D01*
X13610Y-28875D02*
X13572Y-28961D01*
X13572Y-28961D02*
X13552Y-29053D01*
X13552Y-29053D02*
X13550Y-29100D01*
X14000Y-29550D02*
X14094Y-29540D01*
X14094Y-29540D02*
X14183Y-29511D01*
X14183Y-29511D02*
X14265Y-29464D01*
X14265Y-29464D02*
X14334Y-29401D01*
X14334Y-29401D02*
X14390Y-29325D01*
X14390Y-29325D02*
X14428Y-29239D01*
X14428Y-29239D02*
X14448Y-29147D01*
X14448Y-29147D02*
X14448Y-29053D01*
X14448Y-29053D02*
X14428Y-28961D01*
X14428Y-28961D02*
X14390Y-28875D01*
X14390Y-28875D02*
X14334Y-28799D01*
X14334Y-28799D02*
X14265Y-28736D01*
X14265Y-28736D02*
X14183Y-28689D01*
X14183Y-28689D02*
X14094Y-28660D01*
X14094Y-28660D02*
X14000Y-28650D01*
X14000Y-28650D02*
X13906Y-28660D01*
X13906Y-28660D02*
X13817Y-28689D01*
X13817Y-28689D02*
X13735Y-28736D01*
X13735Y-28736D02*
X13666Y-28799D01*
X13666Y-28799D02*
X13610Y-28875D01*
X13610Y-28875D02*
X13572Y-28961D01*
X13572Y-28961D02*
X13552Y-29053D01*
X13552Y-29053D02*
X13552Y-29147D01*
X13552Y-29147D02*
X13572Y-29239D01*
X13572Y-29239D02*
X13610Y-29325D01*
X13610Y-29325D02*
X13666Y-29401D01*
X13666Y-29401D02*
X13735Y-29464D01*
X13735Y-29464D02*
X13817Y-29511D01*
X13817Y-29511D02*
X13906Y-29540D01*
X13906Y-29540D02*
X14000Y-29550D01*
X14000Y-29550D02*
X14094Y-29540D01*
X14094Y-29540D02*
X14183Y-29511D01*
X14183Y-29511D02*
X14265Y-29464D01*
X14265Y-29464D02*
X14334Y-29401D01*
X14334Y-29401D02*
X14390Y-29325D01*
X14390Y-29325D02*
X14428Y-29239D01*
X14428Y-29239D02*
X14448Y-29147D01*
X14448Y-29147D02*
X14450Y-29100D01*
X14000Y-28450D02*
X13865Y-28464D01*
X13865Y-28464D02*
X13736Y-28506D01*
X13736Y-28506D02*
X13618Y-28574D01*
X13618Y-28574D02*
X13517Y-28665D01*
X13517Y-28665D02*
X13437Y-28775D01*
X13437Y-28775D02*
X13382Y-28899D01*
X13382Y-28899D02*
X13354Y-29032D01*
X13354Y-29032D02*
X13354Y-29168D01*
X13354Y-29168D02*
X13382Y-29301D01*
X13382Y-29301D02*
X13437Y-29425D01*
X13437Y-29425D02*
X13517Y-29535D01*
X13517Y-29535D02*
X13618Y-29626D01*
X13618Y-29626D02*
X13736Y-29694D01*
X13736Y-29694D02*
X13865Y-29736D01*
X13865Y-29736D02*
X14000Y-29750D01*
X14000Y-29750D02*
X14135Y-29736D01*
X14135Y-29736D02*
X14264Y-29694D01*
X14264Y-29694D02*
X14382Y-29626D01*
X14382Y-29626D02*
X14483Y-29535D01*
X14483Y-29535D02*
X14563Y-29425D01*
X14563Y-29425D02*
X14618Y-29301D01*
X14618Y-29301D02*
X14646Y-29168D01*
X14646Y-29168D02*
X14646Y-29032D01*
X14646Y-29032D02*
X14618Y-28899D01*
X14618Y-28899D02*
X14563Y-28775D01*
X14563Y-28775D02*
X14483Y-28665D01*
X14483Y-28665D02*
X14382Y-28574D01*
X14382Y-28574D02*
X14264Y-28506D01*
X14264Y-28506D02*
X14135Y-28464D01*
X14135Y-28464D02*
X14000Y-28450D01*
X14000Y-28450D02*
X13865Y-28464D01*
X13865Y-28464D02*
X13736Y-28506D01*
X13736Y-28506D02*
X13618Y-28574D01*
X13618Y-28574D02*
X13517Y-28665D01*
X13517Y-28665D02*
X13437Y-28775D01*
X13437Y-28775D02*
X13382Y-28899D01*
X13382Y-28899D02*
X13354Y-29032D01*
X13354Y-29032D02*
X13350Y-29100D01*
X14000Y-29750D02*
X14135Y-29736D01*
X14135Y-29736D02*
X14264Y-29694D01*
X14264Y-29694D02*
X14382Y-29626D01*
X14382Y-29626D02*
X14483Y-29535D01*
X14483Y-29535D02*
X14563Y-29425D01*
X14563Y-29425D02*
X14618Y-29301D01*
X14618Y-29301D02*
X14646Y-29168D01*
X14646Y-29168D02*
X14646Y-29032D01*
X14646Y-29032D02*
X14618Y-28899D01*
X14618Y-28899D02*
X14563Y-28775D01*
X14563Y-28775D02*
X14483Y-28665D01*
X14483Y-28665D02*
X14382Y-28574D01*
X14382Y-28574D02*
X14264Y-28506D01*
X14264Y-28506D02*
X14135Y-28464D01*
X14135Y-28464D02*
X14000Y-28450D01*
X14000Y-28450D02*
X13865Y-28464D01*
X13865Y-28464D02*
X13736Y-28506D01*
X13736Y-28506D02*
X13618Y-28574D01*
X13618Y-28574D02*
X13517Y-28665D01*
X13517Y-28665D02*
X13437Y-28775D01*
X13437Y-28775D02*
X13382Y-28899D01*
X13382Y-28899D02*
X13354Y-29032D01*
X13354Y-29032D02*
X13354Y-29168D01*
X13354Y-29168D02*
X13382Y-29301D01*
X13382Y-29301D02*
X13437Y-29425D01*
X13437Y-29425D02*
X13517Y-29535D01*
X13517Y-29535D02*
X13618Y-29626D01*
X13618Y-29626D02*
X13736Y-29694D01*
X13736Y-29694D02*
X13865Y-29736D01*
X13865Y-29736D02*
X14000Y-29750D01*
X14000Y-29750D02*
X14135Y-29736D01*
X14135Y-29736D02*
X14264Y-29694D01*
X14264Y-29694D02*
X14382Y-29626D01*
X14382Y-29626D02*
X14483Y-29535D01*
X14483Y-29535D02*
X14563Y-29425D01*
X14563Y-29425D02*
X14618Y-29301D01*
X14618Y-29301D02*
X14646Y-29168D01*
X14646Y-29168D02*
X14650Y-29100D01*
X14000Y-28250D02*
X13823Y-28269D01*
X13823Y-28269D02*
X13654Y-28323D01*
X13654Y-28323D02*
X13500Y-28412D01*
X13500Y-28412D02*
X13368Y-28531D01*
X13368Y-28531D02*
X13264Y-28675D01*
X13264Y-28675D02*
X13192Y-28837D01*
X13192Y-28837D02*
X13155Y-29011D01*
X13155Y-29011D02*
X13155Y-29189D01*
X13155Y-29189D02*
X13192Y-29363D01*
X13192Y-29363D02*
X13264Y-29525D01*
X13264Y-29525D02*
X13368Y-29669D01*
X13368Y-29669D02*
X13500Y-29788D01*
X13500Y-29788D02*
X13654Y-29877D01*
X13654Y-29877D02*
X13823Y-29931D01*
X13823Y-29931D02*
X14000Y-29950D01*
X14000Y-29950D02*
X14177Y-29931D01*
X14177Y-29931D02*
X14346Y-29877D01*
X14346Y-29877D02*
X14500Y-29788D01*
X14500Y-29788D02*
X14632Y-29669D01*
X14632Y-29669D02*
X14736Y-29525D01*
X14736Y-29525D02*
X14808Y-29363D01*
X14808Y-29363D02*
X14845Y-29189D01*
X14845Y-29189D02*
X14845Y-29011D01*
X14845Y-29011D02*
X14808Y-28837D01*
X14808Y-28837D02*
X14736Y-28675D01*
X14736Y-28675D02*
X14632Y-28531D01*
X14632Y-28531D02*
X14500Y-28412D01*
X14500Y-28412D02*
X14346Y-28323D01*
X14346Y-28323D02*
X14177Y-28269D01*
X14177Y-28269D02*
X14000Y-28250D01*
X14000Y-28250D02*
X13823Y-28269D01*
X13823Y-28269D02*
X13654Y-28323D01*
X13654Y-28323D02*
X13500Y-28412D01*
X13500Y-28412D02*
X13368Y-28531D01*
X13368Y-28531D02*
X13264Y-28675D01*
X13264Y-28675D02*
X13192Y-28837D01*
X13192Y-28837D02*
X13155Y-29011D01*
X13155Y-29011D02*
X13150Y-29100D01*
X14000Y-29950D02*
X14177Y-29931D01*
X14177Y-29931D02*
X14346Y-29877D01*
X14346Y-29877D02*
X14500Y-29788D01*
X14500Y-29788D02*
X14632Y-29669D01*
X14632Y-29669D02*
X14736Y-29525D01*
X14736Y-29525D02*
X14808Y-29363D01*
X14808Y-29363D02*
X14845Y-29189D01*
X14845Y-29189D02*
X14845Y-29011D01*
X14845Y-29011D02*
X14808Y-28837D01*
X14808Y-28837D02*
X14736Y-28675D01*
X14736Y-28675D02*
X14632Y-28531D01*
X14632Y-28531D02*
X14500Y-28412D01*
X14500Y-28412D02*
X14346Y-28323D01*
X14346Y-28323D02*
X14177Y-28269D01*
X14177Y-28269D02*
X14000Y-28250D01*
X14000Y-28250D02*
X13823Y-28269D01*
X13823Y-28269D02*
X13654Y-28323D01*
X13654Y-28323D02*
X13500Y-28412D01*
X13500Y-28412D02*
X13368Y-28531D01*
X13368Y-28531D02*
X13264Y-28675D01*
X13264Y-28675D02*
X13192Y-28837D01*
X13192Y-28837D02*
X13155Y-29011D01*
X13155Y-29011D02*
X13155Y-29189D01*
X13155Y-29189D02*
X13192Y-29363D01*
X13192Y-29363D02*
X13264Y-29525D01*
X13264Y-29525D02*
X13368Y-29669D01*
X13368Y-29669D02*
X13500Y-29788D01*
X13500Y-29788D02*
X13654Y-29877D01*
X13654Y-29877D02*
X13823Y-29931D01*
X13823Y-29931D02*
X14000Y-29950D01*
X14000Y-29950D02*
X14177Y-29931D01*
X14177Y-29931D02*
X14346Y-29877D01*
X14346Y-29877D02*
X14500Y-29788D01*
X14500Y-29788D02*
X14632Y-29669D01*
X14632Y-29669D02*
X14736Y-29525D01*
X14736Y-29525D02*
X14808Y-29363D01*
X14808Y-29363D02*
X14845Y-29189D01*
X14845Y-29189D02*
X14850Y-29100D01*
G54D21*
X09750Y-27880D02*
X11250Y-27880D01*
G54D22*
X11207Y-28900D02*
X11193Y-29037D01*
X11193Y-29037D02*
X11153Y-29169D01*
X11153Y-29169D02*
X11088Y-29291D01*
X11088Y-29291D02*
X11001Y-29398D01*
X11001Y-29398D02*
X10895Y-29486D01*
X10895Y-29486D02*
X10773Y-29551D01*
X10773Y-29551D02*
X10642Y-29592D01*
X10642Y-29592D02*
X10504Y-29606D01*
X10504Y-29606D02*
X10368Y-29594D01*
X10368Y-29594D02*
X10236Y-29555D01*
X10236Y-29555D02*
X10113Y-29491D01*
X10113Y-29491D02*
X10006Y-29405D01*
X10006Y-29405D02*
X09917Y-29299D01*
X09917Y-29299D02*
X09851Y-29178D01*
X09851Y-29178D02*
X09809Y-29046D01*
X09809Y-29046D02*
X09794Y-28909D01*
X09794Y-28909D02*
X09805Y-28773D01*
X09805Y-28773D02*
X09843Y-28640D01*
X09843Y-28640D02*
X09906Y-28518D01*
X09906Y-28518D02*
X09992Y-28409D01*
X09992Y-28409D02*
X10097Y-28320D01*
X10097Y-28320D02*
X10217Y-28253D01*
X10217Y-28253D02*
X10349Y-28210D01*
X10349Y-28210D02*
X10486Y-28194D01*
X10486Y-28194D02*
X10622Y-28204D01*
X10622Y-28204D02*
X10755Y-28241D01*
X10755Y-28241D02*
X10878Y-28304D01*
X10878Y-28304D02*
X10987Y-28389D01*
X10987Y-28389D02*
X11077Y-28493D01*
X11077Y-28493D02*
X11145Y-28613D01*
X11145Y-28613D02*
X11189Y-28744D01*
X11189Y-28744D02*
X11206Y-28881D01*
X11206Y-28881D02*
X11207Y-28900D01*
G54D19*
X09749Y-27900D02*
X09558Y-28078D01*
X09558Y-28078D02*
X09408Y-28292D01*
X09408Y-28292D02*
X09305Y-28532D01*
X09305Y-28532D02*
X09255Y-28789D01*
X09255Y-28789D02*
X09259Y-29050D01*
X09259Y-29050D02*
X09317Y-29305D01*
X09317Y-29305D02*
X09427Y-29542D01*
X09427Y-29542D02*
X09584Y-29751D01*
X09584Y-29751D02*
X09781Y-29923D01*
X09781Y-29923D02*
X10010Y-30050D01*
X10010Y-30050D02*
X10259Y-30127D01*
X10259Y-30127D02*
X10520Y-30150D01*
X10520Y-30150D02*
X10779Y-30118D01*
X10779Y-30118D02*
X11026Y-30034D01*
X11026Y-30034D02*
X11251Y-29900D01*
X11251Y-29900D02*
X11442Y-29722D01*
X11442Y-29722D02*
X11592Y-29508D01*
X11592Y-29508D02*
X11695Y-29268D01*
X11695Y-29268D02*
X11745Y-29011D01*
X11745Y-29011D02*
X11741Y-28750D01*
X11741Y-28750D02*
X11683Y-28495D01*
X11683Y-28495D02*
X11573Y-28258D01*
X11573Y-28258D02*
X11416Y-28049D01*
X11416Y-28049D02*
X11219Y-27877D01*
X11219Y-27877D02*
X10990Y-27750D01*
X10990Y-27750D02*
X10741Y-27673D01*
X10741Y-27673D02*
X10480Y-27650D01*
X10480Y-27650D02*
X10221Y-27682D01*
X10221Y-27682D02*
X09974Y-27766D01*
X09974Y-27766D02*
X09749Y-27900D01*
X09749Y-27900D02*
X09558Y-28078D01*
X09558Y-28078D02*
X09408Y-28292D01*
X09408Y-28292D02*
X09305Y-28532D01*
X09305Y-28532D02*
X09255Y-28789D01*
X09255Y-28789D02*
X09259Y-29050D01*
X09259Y-29050D02*
X09317Y-29305D01*
X09317Y-29305D02*
X09427Y-29542D01*
X09427Y-29542D02*
X09584Y-29751D01*
X09584Y-29751D02*
X09781Y-29923D01*
X09781Y-29923D02*
X10010Y-30050D01*
X10010Y-30050D02*
X10259Y-30127D01*
X10259Y-30127D02*
X10520Y-30150D01*
X10520Y-30150D02*
X10779Y-30118D01*
X10779Y-30118D02*
X11026Y-30034D01*
X11026Y-30034D02*
X11251Y-29900D01*
X11251Y-29900D02*
X11442Y-29722D01*
X11442Y-29722D02*
X11592Y-29508D01*
X11592Y-29508D02*
X11695Y-29268D01*
X11695Y-29268D02*
X11745Y-29011D01*
X11745Y-29011D02*
X11741Y-28750D01*
X11741Y-28750D02*
X11683Y-28495D01*
X11683Y-28495D02*
X11573Y-28258D01*
X11573Y-28258D02*
X11416Y-28049D01*
X11416Y-28049D02*
X11251Y-27900D01*
G54D23*
X10500Y-29350D02*
X10594Y-29340D01*
X10594Y-29340D02*
X10683Y-29311D01*
X10683Y-29311D02*
X10765Y-29264D01*
X10765Y-29264D02*
X10834Y-29201D01*
X10834Y-29201D02*
X10890Y-29125D01*
X10890Y-29125D02*
X10928Y-29039D01*
X10928Y-29039D02*
X10948Y-28947D01*
X10948Y-28947D02*
X10948Y-28853D01*
X10948Y-28853D02*
X10928Y-28761D01*
X10928Y-28761D02*
X10890Y-28675D01*
X10890Y-28675D02*
X10834Y-28599D01*
X10834Y-28599D02*
X10765Y-28536D01*
X10765Y-28536D02*
X10683Y-28489D01*
X10683Y-28489D02*
X10594Y-28460D01*
X10594Y-28460D02*
X10500Y-28450D01*
X10500Y-28450D02*
X10406Y-28460D01*
X10406Y-28460D02*
X10317Y-28489D01*
X10317Y-28489D02*
X10235Y-28536D01*
X10235Y-28536D02*
X10166Y-28599D01*
X10166Y-28599D02*
X10110Y-28675D01*
X10110Y-28675D02*
X10072Y-28761D01*
X10072Y-28761D02*
X10052Y-28853D01*
X10052Y-28853D02*
X10052Y-28947D01*
X10052Y-28947D02*
X10072Y-29039D01*
X10072Y-29039D02*
X10110Y-29125D01*
X10110Y-29125D02*
X10166Y-29201D01*
X10166Y-29201D02*
X10235Y-29264D01*
X10235Y-29264D02*
X10317Y-29311D01*
X10317Y-29311D02*
X10406Y-29340D01*
X10406Y-29340D02*
X10500Y-29350D01*
X10500Y-29350D02*
X10594Y-29340D01*
X10594Y-29340D02*
X10683Y-29311D01*
X10683Y-29311D02*
X10765Y-29264D01*
X10765Y-29264D02*
X10834Y-29201D01*
X10834Y-29201D02*
X10890Y-29125D01*
X10890Y-29125D02*
X10928Y-29039D01*
X10928Y-29039D02*
X10948Y-28947D01*
X10948Y-28947D02*
X10950Y-28900D01*
X10500Y-28450D02*
X10406Y-28460D01*
X10406Y-28460D02*
X10317Y-28489D01*
X10317Y-28489D02*
X10235Y-28536D01*
X10235Y-28536D02*
X10166Y-28599D01*
X10166Y-28599D02*
X10110Y-28675D01*
X10110Y-28675D02*
X10072Y-28761D01*
X10072Y-28761D02*
X10052Y-28853D01*
X10052Y-28853D02*
X10052Y-28947D01*
X10052Y-28947D02*
X10072Y-29039D01*
X10072Y-29039D02*
X10110Y-29125D01*
X10110Y-29125D02*
X10166Y-29201D01*
X10166Y-29201D02*
X10235Y-29264D01*
X10235Y-29264D02*
X10317Y-29311D01*
X10317Y-29311D02*
X10406Y-29340D01*
X10406Y-29340D02*
X10500Y-29350D01*
X10500Y-29350D02*
X10594Y-29340D01*
X10594Y-29340D02*
X10683Y-29311D01*
X10683Y-29311D02*
X10765Y-29264D01*
X10765Y-29264D02*
X10834Y-29201D01*
X10834Y-29201D02*
X10890Y-29125D01*
X10890Y-29125D02*
X10928Y-29039D01*
X10928Y-29039D02*
X10948Y-28947D01*
X10948Y-28947D02*
X10948Y-28853D01*
X10948Y-28853D02*
X10928Y-28761D01*
X10928Y-28761D02*
X10890Y-28675D01*
X10890Y-28675D02*
X10834Y-28599D01*
X10834Y-28599D02*
X10765Y-28536D01*
X10765Y-28536D02*
X10683Y-28489D01*
X10683Y-28489D02*
X10594Y-28460D01*
X10594Y-28460D02*
X10500Y-28450D01*
X10500Y-28450D02*
X10406Y-28460D01*
X10406Y-28460D02*
X10317Y-28489D01*
X10317Y-28489D02*
X10235Y-28536D01*
X10235Y-28536D02*
X10166Y-28599D01*
X10166Y-28599D02*
X10110Y-28675D01*
X10110Y-28675D02*
X10072Y-28761D01*
X10072Y-28761D02*
X10052Y-28853D01*
X10052Y-28853D02*
X10050Y-28900D01*
X10500Y-29550D02*
X10635Y-29536D01*
X10635Y-29536D02*
X10764Y-29494D01*
X10764Y-29494D02*
X10882Y-29426D01*
X10882Y-29426D02*
X10983Y-29335D01*
X10983Y-29335D02*
X11063Y-29225D01*
X11063Y-29225D02*
X11118Y-29101D01*
X11118Y-29101D02*
X11146Y-28968D01*
X11146Y-28968D02*
X11146Y-28832D01*
X11146Y-28832D02*
X11118Y-28699D01*
X11118Y-28699D02*
X11063Y-28575D01*
X11063Y-28575D02*
X10983Y-28465D01*
X10983Y-28465D02*
X10882Y-28374D01*
X10882Y-28374D02*
X10764Y-28306D01*
X10764Y-28306D02*
X10635Y-28264D01*
X10635Y-28264D02*
X10500Y-28250D01*
X10500Y-28250D02*
X10365Y-28264D01*
X10365Y-28264D02*
X10236Y-28306D01*
X10236Y-28306D02*
X10118Y-28374D01*
X10118Y-28374D02*
X10017Y-28465D01*
X10017Y-28465D02*
X09937Y-28575D01*
X09937Y-28575D02*
X09882Y-28699D01*
X09882Y-28699D02*
X09854Y-28832D01*
X09854Y-28832D02*
X09854Y-28968D01*
X09854Y-28968D02*
X09882Y-29101D01*
X09882Y-29101D02*
X09937Y-29225D01*
X09937Y-29225D02*
X10017Y-29335D01*
X10017Y-29335D02*
X10118Y-29426D01*
X10118Y-29426D02*
X10236Y-29494D01*
X10236Y-29494D02*
X10365Y-29536D01*
X10365Y-29536D02*
X10500Y-29550D01*
X10500Y-29550D02*
X10635Y-29536D01*
X10635Y-29536D02*
X10764Y-29494D01*
X10764Y-29494D02*
X10882Y-29426D01*
X10882Y-29426D02*
X10983Y-29335D01*
X10983Y-29335D02*
X11063Y-29225D01*
X11063Y-29225D02*
X11118Y-29101D01*
X11118Y-29101D02*
X11146Y-28968D01*
X11146Y-28968D02*
X11150Y-28900D01*
X10500Y-28250D02*
X10365Y-28264D01*
X10365Y-28264D02*
X10236Y-28306D01*
X10236Y-28306D02*
X10118Y-28374D01*
X10118Y-28374D02*
X10017Y-28465D01*
X10017Y-28465D02*
X09937Y-28575D01*
X09937Y-28575D02*
X09882Y-28699D01*
X09882Y-28699D02*
X09854Y-28832D01*
X09854Y-28832D02*
X09854Y-28968D01*
X09854Y-28968D02*
X09882Y-29101D01*
X09882Y-29101D02*
X09937Y-29225D01*
X09937Y-29225D02*
X10017Y-29335D01*
X10017Y-29335D02*
X10118Y-29426D01*
X10118Y-29426D02*
X10236Y-29494D01*
X10236Y-29494D02*
X10365Y-29536D01*
X10365Y-29536D02*
X10500Y-29550D01*
X10500Y-29550D02*
X10635Y-29536D01*
X10635Y-29536D02*
X10764Y-29494D01*
X10764Y-29494D02*
X10882Y-29426D01*
X10882Y-29426D02*
X10983Y-29335D01*
X10983Y-29335D02*
X11063Y-29225D01*
X11063Y-29225D02*
X11118Y-29101D01*
X11118Y-29101D02*
X11146Y-28968D01*
X11146Y-28968D02*
X11146Y-28832D01*
X11146Y-28832D02*
X11118Y-28699D01*
X11118Y-28699D02*
X11063Y-28575D01*
X11063Y-28575D02*
X10983Y-28465D01*
X10983Y-28465D02*
X10882Y-28374D01*
X10882Y-28374D02*
X10764Y-28306D01*
X10764Y-28306D02*
X10635Y-28264D01*
X10635Y-28264D02*
X10500Y-28250D01*
X10500Y-28250D02*
X10365Y-28264D01*
X10365Y-28264D02*
X10236Y-28306D01*
X10236Y-28306D02*
X10118Y-28374D01*
X10118Y-28374D02*
X10017Y-28465D01*
X10017Y-28465D02*
X09937Y-28575D01*
X09937Y-28575D02*
X09882Y-28699D01*
X09882Y-28699D02*
X09854Y-28832D01*
X09854Y-28832D02*
X09850Y-28900D01*
X10500Y-29750D02*
X10677Y-29731D01*
X10677Y-29731D02*
X10846Y-29677D01*
X10846Y-29677D02*
X11000Y-29588D01*
X11000Y-29588D02*
X11132Y-29469D01*
X11132Y-29469D02*
X11236Y-29325D01*
X11236Y-29325D02*
X11308Y-29163D01*
X11308Y-29163D02*
X11345Y-28989D01*
X11345Y-28989D02*
X11345Y-28811D01*
X11345Y-28811D02*
X11308Y-28637D01*
X11308Y-28637D02*
X11236Y-28475D01*
X11236Y-28475D02*
X11132Y-28331D01*
X11132Y-28331D02*
X11000Y-28212D01*
X11000Y-28212D02*
X10846Y-28123D01*
X10846Y-28123D02*
X10677Y-28069D01*
X10677Y-28069D02*
X10500Y-28050D01*
X10500Y-28050D02*
X10323Y-28069D01*
X10323Y-28069D02*
X10154Y-28123D01*
X10154Y-28123D02*
X10000Y-28212D01*
X10000Y-28212D02*
X09868Y-28331D01*
X09868Y-28331D02*
X09764Y-28475D01*
X09764Y-28475D02*
X09692Y-28637D01*
X09692Y-28637D02*
X09655Y-28811D01*
X09655Y-28811D02*
X09655Y-28989D01*
X09655Y-28989D02*
X09692Y-29163D01*
X09692Y-29163D02*
X09764Y-29325D01*
X09764Y-29325D02*
X09868Y-29469D01*
X09868Y-29469D02*
X10000Y-29588D01*
X10000Y-29588D02*
X10154Y-29677D01*
X10154Y-29677D02*
X10323Y-29731D01*
X10323Y-29731D02*
X10500Y-29750D01*
X10500Y-29750D02*
X10677Y-29731D01*
X10677Y-29731D02*
X10846Y-29677D01*
X10846Y-29677D02*
X11000Y-29588D01*
X11000Y-29588D02*
X11132Y-29469D01*
X11132Y-29469D02*
X11236Y-29325D01*
X11236Y-29325D02*
X11308Y-29163D01*
X11308Y-29163D02*
X11345Y-28989D01*
X11345Y-28989D02*
X11350Y-28900D01*
X10500Y-28050D02*
X10323Y-28069D01*
X10323Y-28069D02*
X10154Y-28123D01*
X10154Y-28123D02*
X10000Y-28212D01*
X10000Y-28212D02*
X09868Y-28331D01*
X09868Y-28331D02*
X09764Y-28475D01*
X09764Y-28475D02*
X09692Y-28637D01*
X09692Y-28637D02*
X09655Y-28811D01*
X09655Y-28811D02*
X09655Y-28989D01*
X09655Y-28989D02*
X09692Y-29163D01*
X09692Y-29163D02*
X09764Y-29325D01*
X09764Y-29325D02*
X09868Y-29469D01*
X09868Y-29469D02*
X10000Y-29588D01*
X10000Y-29588D02*
X10154Y-29677D01*
X10154Y-29677D02*
X10323Y-29731D01*
X10323Y-29731D02*
X10500Y-29750D01*
X10500Y-29750D02*
X10677Y-29731D01*
X10677Y-29731D02*
X10846Y-29677D01*
X10846Y-29677D02*
X11000Y-29588D01*
X11000Y-29588D02*
X11132Y-29469D01*
X11132Y-29469D02*
X11236Y-29325D01*
X11236Y-29325D02*
X11308Y-29163D01*
X11308Y-29163D02*
X11345Y-28989D01*
X11345Y-28989D02*
X11345Y-28811D01*
X11345Y-28811D02*
X11308Y-28637D01*
X11308Y-28637D02*
X11236Y-28475D01*
X11236Y-28475D02*
X11132Y-28331D01*
X11132Y-28331D02*
X11000Y-28212D01*
X11000Y-28212D02*
X10846Y-28123D01*
X10846Y-28123D02*
X10677Y-28069D01*
X10677Y-28069D02*
X10500Y-28050D01*
X10500Y-28050D02*
X10323Y-28069D01*
X10323Y-28069D02*
X10154Y-28123D01*
X10154Y-28123D02*
X10000Y-28212D01*
X10000Y-28212D02*
X09868Y-28331D01*
X09868Y-28331D02*
X09764Y-28475D01*
X09764Y-28475D02*
X09692Y-28637D01*
X09692Y-28637D02*
X09655Y-28811D01*
X09655Y-28811D02*
X09650Y-28900D01*
G54D24*
X14330Y-28500D02*
X14323Y-28564D01*
X14323Y-28564D02*
X14305Y-28625D01*
X14305Y-28625D02*
X14274Y-28682D01*
X14274Y-28682D02*
X14234Y-28732D01*
X14234Y-28732D02*
X14184Y-28773D01*
X14184Y-28773D02*
X14127Y-28804D01*
X14127Y-28804D02*
X14066Y-28823D01*
X14066Y-28823D02*
X14002Y-28829D01*
X14002Y-28829D02*
X13939Y-28824D01*
X13939Y-28824D02*
X13877Y-28805D01*
X13877Y-28805D02*
X13820Y-28776D01*
X13820Y-28776D02*
X13770Y-28735D01*
X13770Y-28735D02*
X13728Y-28686D01*
X13728Y-28686D02*
X13697Y-28630D01*
X13697Y-28630D02*
X13678Y-28568D01*
X13678Y-28568D02*
X13671Y-28504D01*
X13671Y-28504D02*
X13676Y-28441D01*
X13676Y-28441D02*
X13694Y-28379D01*
X13694Y-28379D02*
X13723Y-28322D01*
X13723Y-28322D02*
X13763Y-28271D01*
X13763Y-28271D02*
X13812Y-28230D01*
X13812Y-28230D02*
X13868Y-28198D01*
X13868Y-28198D02*
X13930Y-28178D01*
X13930Y-28178D02*
X13994Y-28171D01*
X13994Y-28171D02*
X14057Y-28176D01*
X14057Y-28176D02*
X14119Y-28193D01*
X14119Y-28193D02*
X14176Y-28222D01*
X14176Y-28222D02*
X14227Y-28262D01*
X14227Y-28262D02*
X14269Y-28310D01*
X14269Y-28310D02*
X14301Y-28366D01*
X14301Y-28366D02*
X14321Y-28427D01*
X14321Y-28427D02*
X14329Y-28491D01*
X14329Y-28491D02*
X14330Y-28500D01*
X14330Y-29500D02*
X14323Y-29564D01*
X14323Y-29564D02*
X14305Y-29625D01*
X14305Y-29625D02*
X14274Y-29682D01*
X14274Y-29682D02*
X14234Y-29732D01*
X14234Y-29732D02*
X14184Y-29773D01*
X14184Y-29773D02*
X14127Y-29804D01*
X14127Y-29804D02*
X14066Y-29823D01*
X14066Y-29823D02*
X14002Y-29829D01*
X14002Y-29829D02*
X13939Y-29824D01*
X13939Y-29824D02*
X13877Y-29805D01*
X13877Y-29805D02*
X13820Y-29776D01*
X13820Y-29776D02*
X13770Y-29735D01*
X13770Y-29735D02*
X13728Y-29686D01*
X13728Y-29686D02*
X13697Y-29630D01*
X13697Y-29630D02*
X13678Y-29568D01*
X13678Y-29568D02*
X13671Y-29504D01*
X13671Y-29504D02*
X13676Y-29441D01*
X13676Y-29441D02*
X13694Y-29379D01*
X13694Y-29379D02*
X13723Y-29322D01*
X13723Y-29322D02*
X13763Y-29271D01*
X13763Y-29271D02*
X13812Y-29230D01*
X13812Y-29230D02*
X13868Y-29198D01*
X13868Y-29198D02*
X13930Y-29178D01*
X13930Y-29178D02*
X13994Y-29171D01*
X13994Y-29171D02*
X14057Y-29176D01*
X14057Y-29176D02*
X14119Y-29193D01*
X14119Y-29193D02*
X14176Y-29222D01*
X14176Y-29222D02*
X14227Y-29262D01*
X14227Y-29262D02*
X14269Y-29310D01*
X14269Y-29310D02*
X14301Y-29366D01*
X14301Y-29366D02*
X14321Y-29427D01*
X14321Y-29427D02*
X14329Y-29491D01*
X14329Y-29491D02*
X14330Y-29500D01*
X10830Y-29500D02*
X10823Y-29564D01*
X10823Y-29564D02*
X10805Y-29625D01*
X10805Y-29625D02*
X10774Y-29682D01*
X10774Y-29682D02*
X10734Y-29732D01*
X10734Y-29732D02*
X10684Y-29773D01*
X10684Y-29773D02*
X10627Y-29804D01*
X10627Y-29804D02*
X10566Y-29823D01*
X10566Y-29823D02*
X10502Y-29829D01*
X10502Y-29829D02*
X10439Y-29824D01*
X10439Y-29824D02*
X10377Y-29805D01*
X10377Y-29805D02*
X10320Y-29776D01*
X10320Y-29776D02*
X10270Y-29735D01*
X10270Y-29735D02*
X10228Y-29686D01*
X10228Y-29686D02*
X10197Y-29630D01*
X10197Y-29630D02*
X10178Y-29568D01*
X10178Y-29568D02*
X10171Y-29504D01*
X10171Y-29504D02*
X10176Y-29441D01*
X10176Y-29441D02*
X10194Y-29379D01*
X10194Y-29379D02*
X10223Y-29322D01*
X10223Y-29322D02*
X10263Y-29271D01*
X10263Y-29271D02*
X10312Y-29230D01*
X10312Y-29230D02*
X10368Y-29198D01*
X10368Y-29198D02*
X10430Y-29178D01*
X10430Y-29178D02*
X10494Y-29171D01*
X10494Y-29171D02*
X10557Y-29176D01*
X10557Y-29176D02*
X10619Y-29193D01*
X10619Y-29193D02*
X10676Y-29222D01*
X10676Y-29222D02*
X10727Y-29262D01*
X10727Y-29262D02*
X10769Y-29310D01*
X10769Y-29310D02*
X10801Y-29366D01*
X10801Y-29366D02*
X10821Y-29427D01*
X10821Y-29427D02*
X10829Y-29491D01*
X10829Y-29491D02*
X10830Y-29500D01*
X10830Y-28500D02*
X10823Y-28564D01*
X10823Y-28564D02*
X10805Y-28625D01*
X10805Y-28625D02*
X10774Y-28682D01*
X10774Y-28682D02*
X10734Y-28732D01*
X10734Y-28732D02*
X10684Y-28773D01*
X10684Y-28773D02*
X10627Y-28804D01*
X10627Y-28804D02*
X10566Y-28823D01*
X10566Y-28823D02*
X10502Y-28829D01*
X10502Y-28829D02*
X10439Y-28824D01*
X10439Y-28824D02*
X10377Y-28805D01*
X10377Y-28805D02*
X10320Y-28776D01*
X10320Y-28776D02*
X10270Y-28735D01*
X10270Y-28735D02*
X10228Y-28686D01*
X10228Y-28686D02*
X10197Y-28630D01*
X10197Y-28630D02*
X10178Y-28568D01*
X10178Y-28568D02*
X10171Y-28504D01*
X10171Y-28504D02*
X10176Y-28441D01*
X10176Y-28441D02*
X10194Y-28379D01*
X10194Y-28379D02*
X10223Y-28322D01*
X10223Y-28322D02*
X10263Y-28271D01*
X10263Y-28271D02*
X10312Y-28230D01*
X10312Y-28230D02*
X10368Y-28198D01*
X10368Y-28198D02*
X10430Y-28178D01*
X10430Y-28178D02*
X10494Y-28171D01*
X10494Y-28171D02*
X10557Y-28176D01*
X10557Y-28176D02*
X10619Y-28193D01*
X10619Y-28193D02*
X10676Y-28222D01*
X10676Y-28222D02*
X10727Y-28262D01*
X10727Y-28262D02*
X10769Y-28310D01*
X10769Y-28310D02*
X10801Y-28366D01*
X10801Y-28366D02*
X10821Y-28427D01*
X10821Y-28427D02*
X10829Y-28491D01*
X10829Y-28491D02*
X10830Y-28500D01*
G54D25*
X12650Y-28514D02*
X12350Y-28514D01*
X12350Y-28481D02*
X12350Y-28681D01*
X12350Y-28681D02*
X12384Y-28714D01*
X12384Y-28714D02*
X12617Y-28714D01*
X12617Y-28714D02*
X12650Y-28681D01*
X12650Y-28681D02*
X12650Y-28481D01*
X12650Y-28916D02*
X12650Y-29049D01*
X12650Y-28982D02*
X12350Y-28982D01*
X12384Y-28982D02*
X12450Y-28916D01*
X12650Y-29250D02*
X12617Y-29217D01*
X12617Y-29217D02*
X12517Y-29217D01*
X12517Y-29217D02*
X12484Y-29250D01*
X12484Y-29250D02*
X12484Y-29417D01*
X12484Y-29417D02*
X12450Y-29450D01*
X12450Y-29450D02*
X12384Y-29450D01*
X12384Y-29450D02*
X12350Y-29417D01*
X12350Y-29417D02*
X12350Y-29250D01*
X12350Y-29250D02*
X12384Y-29217D01*
X12384Y-29217D02*
X12450Y-29217D01*
X12450Y-29217D02*
X12484Y-29250D01*
X12484Y-29417D02*
X12517Y-29450D01*
X12517Y-29450D02*
X12617Y-29450D01*
X12617Y-29450D02*
X12650Y-29417D01*
X12650Y-29417D02*
X12650Y-29250D01*
X15650Y-26122D02*
X15350Y-26122D01*
X15350Y-26089D02*
X15350Y-26289D01*
X15350Y-26289D02*
X15384Y-26322D01*
X15384Y-26322D02*
X15617Y-26322D01*
X15617Y-26322D02*
X15650Y-26289D01*
X15650Y-26289D02*
X15650Y-26089D01*
X15650Y-26490D02*
X15650Y-26624D01*
X15650Y-26557D02*
X15350Y-26557D01*
X15350Y-26490D02*
X15350Y-26624D01*
X15650Y-26858D02*
X15617Y-26825D01*
X15617Y-26825D02*
X15384Y-26825D01*
X15384Y-26825D02*
X15350Y-26858D01*
X15350Y-26858D02*
X15350Y-27025D01*
X15350Y-27025D02*
X15384Y-27058D01*
X15384Y-27058D02*
X15617Y-27058D01*
X15617Y-27058D02*
X15650Y-27025D01*
X15650Y-27025D02*
X15650Y-26858D01*
X15650Y-27226D02*
X15350Y-27226D01*
X15350Y-27193D02*
X15350Y-27393D01*
X15350Y-27393D02*
X15384Y-27426D01*
X15384Y-27426D02*
X15617Y-27426D01*
X15617Y-27426D02*
X15650Y-27393D01*
X15650Y-27393D02*
X15650Y-27193D01*
X15650Y-27794D02*
X15650Y-27561D01*
X15650Y-27561D02*
X15350Y-27561D01*
X15350Y-27561D02*
X15350Y-27794D01*
X15484Y-27561D02*
X15484Y-27694D01*
X15650Y-27929D02*
X15650Y-28162D01*
X15650Y-28297D02*
X15350Y-28297D01*
X15350Y-28297D02*
X15350Y-28497D01*
X15350Y-28497D02*
X15384Y-28530D01*
X15384Y-28530D02*
X15484Y-28530D01*
X15484Y-28530D02*
X15517Y-28497D01*
X15517Y-28497D02*
X15517Y-28297D01*
X15650Y-28665D02*
X15350Y-28665D01*
X15650Y-28898D02*
X15350Y-28898D01*
X15517Y-28665D02*
X15517Y-28898D01*
X15650Y-29066D02*
X15617Y-29033D01*
X15617Y-29033D02*
X15384Y-29033D01*
X15384Y-29033D02*
X15350Y-29066D01*
X15350Y-29066D02*
X15350Y-29233D01*
X15350Y-29233D02*
X15384Y-29266D01*
X15384Y-29266D02*
X15617Y-29266D01*
X15617Y-29266D02*
X15650Y-29233D01*
X15650Y-29233D02*
X15650Y-29066D01*
X15350Y-29401D02*
X15350Y-29668D01*
X15350Y-29534D02*
X15650Y-29534D01*
X15650Y-29802D02*
X15617Y-29769D01*
X15617Y-29769D02*
X15384Y-29769D01*
X15384Y-29769D02*
X15350Y-29802D01*
X15350Y-29802D02*
X15350Y-29969D01*
X15350Y-29969D02*
X15384Y-30002D01*
X15384Y-30002D02*
X15617Y-30002D01*
X15617Y-30002D02*
X15650Y-29969D01*
X15650Y-29969D02*
X15650Y-29802D01*
X15650Y-30170D02*
X15350Y-30170D01*
X15350Y-30137D02*
X15350Y-30337D01*
X15350Y-30337D02*
X15384Y-30370D01*
X15384Y-30370D02*
X15617Y-30370D01*
X15617Y-30370D02*
X15650Y-30337D01*
X15650Y-30337D02*
X15650Y-30137D01*
X15650Y-30538D02*
X15650Y-30672D01*
X15650Y-30605D02*
X15350Y-30605D01*
X15350Y-30538D02*
X15350Y-30672D01*
X15650Y-30906D02*
X15617Y-30873D01*
X15617Y-30873D02*
X15384Y-30873D01*
X15384Y-30873D02*
X15350Y-30906D01*
X15350Y-30906D02*
X15350Y-31073D01*
X15350Y-31073D02*
X15384Y-31106D01*
X15384Y-31106D02*
X15617Y-31106D01*
X15617Y-31106D02*
X15650Y-31073D01*
X15650Y-31073D02*
X15650Y-30906D01*
X15650Y-31274D02*
X15350Y-31274D01*
X15350Y-31241D02*
X15350Y-31441D01*
X15350Y-31441D02*
X15384Y-31474D01*
X15384Y-31474D02*
X15617Y-31474D01*
X15617Y-31474D02*
X15650Y-31441D01*
X15650Y-31441D02*
X15650Y-31241D01*
X15650Y-31842D02*
X15650Y-31609D01*
X15650Y-31609D02*
X15350Y-31609D01*
X15350Y-31609D02*
X15350Y-31842D01*
X15484Y-31609D02*
X15484Y-31742D01*
X12150Y-28514D02*
X11850Y-28514D01*
X11850Y-28481D02*
X11850Y-28681D01*
X11850Y-28681D02*
X11884Y-28714D01*
X11884Y-28714D02*
X12117Y-28714D01*
X12117Y-28714D02*
X12150Y-28681D01*
X12150Y-28681D02*
X12150Y-28481D01*
X12150Y-28916D02*
X12150Y-29049D01*
X12150Y-28982D02*
X11850Y-28982D01*
X11884Y-28982D02*
X11950Y-28916D01*
X11850Y-29217D02*
X11850Y-29450D01*
X11850Y-29450D02*
X12150Y-29217D01*
X08850Y-28481D02*
X09150Y-28481D01*
X09150Y-28481D02*
X09150Y-28748D01*
X09150Y-29082D02*
X09150Y-28849D01*
X09150Y-28849D02*
X08850Y-28849D01*
X08850Y-28849D02*
X08850Y-29082D01*
X08984Y-28849D02*
X08984Y-28982D01*
X09150Y-29250D02*
X08850Y-29250D01*
X08850Y-29217D02*
X08850Y-29417D01*
X08850Y-29417D02*
X08884Y-29450D01*
X08884Y-29450D02*
X09117Y-29450D01*
X09117Y-29450D02*
X09150Y-29417D01*
X09150Y-29417D02*
X09150Y-29217D01*
M02*
