M48
;DRILL file {PCBnew (20090216-final)} date 4/4/2010 13:38:08
;FORMAT={-.-/ absolute / inch / decimal}
R,T
VER,1
FMAT,2
INCH,TZ
TCST,OFF
ICI,OFF
ATC,ON
T1C0.025
T2C0.032
T3C0.040
%
M47
G05
M72
T1
X2.500Y3.900
X2.900Y3.900
X3.700Y4.200
X4.000Y4.000
X4.700Y3.950
X4.700Y4.050
X5.000Y3.650
X5.050Y3.700
T2
X2.350Y4.100
X2.350Y4.200
X2.650Y4.100
X2.650Y4.200
X3.050Y3.900
X3.050Y4.200
X3.100Y4.400
X3.100Y4.600
X3.150Y3.900
X3.150Y4.200
X3.200Y4.400
X3.200Y4.600
X3.350Y4.400
X3.350Y4.600
X3.400Y3.200
X3.400Y3.500
X3.550Y3.200
X3.550Y3.300
X3.550Y3.400
X3.550Y3.500
X3.550Y3.600
X3.550Y3.700
X3.550Y3.800
X3.550Y3.900
X3.550Y4.000
X3.550Y4.100
X3.550Y4.200
X3.550Y4.300
X3.550Y4.400
X3.550Y4.500
X3.550Y4.600
X3.550Y4.700
X3.550Y4.800
X3.550Y4.900
X3.550Y5.000
X3.550Y5.100
X4.150Y3.200
X4.150Y3.300
X4.150Y3.400
X4.150Y3.500
X4.150Y3.600
X4.150Y3.700
X4.150Y3.800
X4.150Y3.900
X4.150Y4.000
X4.150Y4.100
X4.150Y4.200
X4.150Y4.300
X4.150Y4.400
X4.150Y4.500
X4.150Y4.600
X4.150Y4.700
X4.150Y4.800
X4.150Y4.900
X4.150Y5.000
X4.150Y5.100
X5.300Y4.100
X5.300Y4.200
X5.600Y4.100
X5.600Y4.200
X5.900Y4.100
X5.900Y4.200
X6.200Y4.100
X6.200Y4.200
X6.500Y4.100
X6.500Y4.200
X6.800Y4.100
X6.800Y4.200
X7.100Y4.100
X7.100Y4.200
X7.400Y4.100
X7.400Y4.200
X7.700Y4.100
X7.700Y4.200
X8.000Y4.100
X8.000Y4.200
X8.300Y4.100
X8.300Y4.200
X8.600Y4.100
X8.600Y4.200
X8.900Y4.100
X8.900Y4.200
X9.200Y4.100
X9.200Y4.200
X9.500Y4.100
X9.500Y4.200
X9.800Y4.100
X9.800Y4.200
T3
X2.600Y4.350
X2.600Y4.450
X2.600Y4.550
X2.600Y4.650
X2.600Y4.750
X2.900Y4.300
X2.900Y4.400
X3.250Y4.100
X3.250Y4.200
X3.350Y4.100
X3.350Y4.200
T0
M30
